# xmcd
#
# Track frame offsets: 
#        183
#        19123
#        31353
#        51120
#        67018
#        78880
#        92828
#        108380
#        126098
#
# Disc length: 1890 seconds
#
# Revision: 0
# Processed by: cddbd v1.4PL0 Copyright (c) Steve Scherf et al.
# Submitted via: ExactAudioCopy v0.90a11
#
DISCID=6f076009
DTITLE=Pip Peel - As in apple
DYEAR=1900
DGENRE=
TTITLE0=Walked On
TTITLE1=Moods Change
TTITLE2=Where's Louise
TTITLE3=Heaven On My Mind
TTITLE4=Somebody's Calling You
TTITLE5=All Under All Over
TTITLE6=Don't Kiss Me Again
TTITLE7=Wonderful Age (The Runcie Close Song)
TTITLE8=Your Thoughts Are All Your Own
EXTD=
EXTT0=
EXTT1=
EXTT2=
EXTT3=
EXTT4=
EXTT5=
EXTT6=
EXTT7=
EXTT8=
PLAYORDER=
